<svg width="8" height="8" viewBox="0 0 8 8" fill="none" xmlns="http://www.w3.org/2000/svg">
<path d="M7.79956 7.39932C7.79956 7.62023 7.62047 7.79932 7.39956 7.79932H7.00034C6.77943 7.79932 6.60034 7.62023 6.60034 7.39932V3.21227C6.60034 2.85591 6.16949 2.67744 5.9175 2.92942L1.40662 7.4403C1.25041 7.59651 0.997146 7.59651 0.840937 7.4403L0.558966 7.15833C0.402756 7.00212 0.402756 6.74886 0.558966 6.59265L5.06984 2.08177C5.32183 1.82978 5.14336 1.39893 4.787 1.39893H0.599951C0.379038 1.39893 0.199951 1.21984 0.199951 0.998926V0.599707C0.199951 0.378793 0.379037 0.199707 0.599951 0.199707H7.39956C7.62047 0.199707 7.79956 0.378793 7.79956 0.599707V7.39932Z" fill="#AC873E"/>
</svg>
